<svg width="98" height="139" viewBox="0 0 98 139" fill="none" xmlns="http://www.w3.org/2000/svg">
<g id="_&#236;&#157;&#180;&#236;&#150;&#180;_1" clip-path="url(#clip0_1778_16909)">
<path id="Vector" d="M83.0198 40.6631H97.8405V138.638H65.2817V58.4012C65.2817 48.6126 73.2312 40.6631 83.0198 40.6631Z" fill="#8700FF"/>
<path id="Vector_2" d="M16.4409 32.5168C25.433 32.5168 32.7226 25.2376 32.7226 16.2584C32.7226 7.27912 25.433 0 16.4409 0C7.44875 0 0.15918 7.27912 0.15918 16.2584C0.15918 25.2376 7.44875 32.5168 16.4409 32.5168Z" fill="#87DFFF"/>
<path id="Vector_3" d="M32.7179 40.6631H0.15918V138.638H32.7179V40.6631Z" fill="#87DFFF"/>
<path id="Vector_4" d="M49 32.5168C57.9921 32.5168 65.2817 25.2376 65.2817 16.2584C65.2817 7.27912 57.9921 0 49 0C40.0078 0 32.7183 7.27912 32.7183 16.2584C32.7183 25.2376 40.0078 32.5168 49 32.5168Z" fill="#87DFFF"/>
<path id="Vector_5" d="M65.277 40.6631H32.7183V138.638H65.277V40.6631Z" fill="#87DFFF"/>
<path id="Vector_6" d="M81.5635 32.6753C90.5556 32.6753 97.8452 25.3857 97.8452 16.3936C97.8452 7.40141 90.5556 0.111839 81.5635 0.111839C72.5713 0.111839 65.2817 7.40141 65.2817 16.3936C65.2817 25.3857 72.5713 32.6753 81.5635 32.6753Z" fill="#8700FF"/>
</g>
<defs>
<clipPath id="clip0_1778_16909">
<rect width="97.6809" height="138.637" fill="white" transform="translate(0.15918)"/>
</clipPath>
</defs>
</svg>
